<svg width="57" height="56" viewBox="0 0 57 56" fill="none" xmlns="http://www.w3.org/2000/svg">
<path d="M19.5891 13.7704H31.8332C32.0791 14.0203 32.2882 14.2989 32.4645 14.6062C32.6161 14.8643 32.7391 15.1347 32.8416 15.4133C32.6571 15.4092 32.4727 15.4092 32.2841 15.4092L24.8319 15.401H23.0487C23.0282 16.4867 22.9996 19.7478 23.0077 20.6123C21.8641 20.6123 20.7984 20.6123 19.6547 20.6123C19.6547 20.342 19.6506 20.2149 19.6465 19.9486C19.6383 18.8014 19.6178 15.0609 19.5932 13.9588L19.5891 13.7704ZM17.9126 21.7267H29.8738C30.4682 21.7267 31.0011 21.6366 31.4724 21.4563C31.948 21.2802 32.362 21.0343 32.7186 20.7229C33.0752 20.4157 33.3704 20.0552 33.6123 19.6454C33.85 19.2317 34.0263 18.7974 34.1493 18.3344C34.2681 17.8715 34.3296 17.3921 34.3296 16.9004C34.3296 16.4088 34.2722 15.9336 34.1534 15.4707C34.0345 15.0077 33.8582 14.5693 33.6245 14.1596C33.3868 13.7499 33.0917 13.3894 32.731 13.078C32.3702 12.7708 31.9521 12.5249 31.4766 12.3447C31.0011 12.1685 30.4641 12.0783 29.8657 12.0783C25.8813 12.0743 21.8969 12.0702 17.9126 12.0702V21.7267ZM45.84 40.0769H41.79C41.4252 40.0769 41.0194 40.0073 40.5726 39.868C40.1216 39.7287 39.6461 39.5075 39.1461 39.1961C38.6418 38.8889 38.1213 38.4874 37.5761 37.9917C37.0309 37.4958 36.4816 36.8977 35.9241 36.1971L29.3246 27.868C28.7589 27.1552 28.185 26.4956 27.5947 25.8933C27.0045 25.2869 26.3731 24.7626 25.7009 24.3201C24.1023 23.2671 23.6923 23.3654 21.9133 23.3654C22.5938 23.6113 23.2332 23.9267 23.8234 24.3201C24.4999 24.7626 25.127 25.2869 25.7173 25.8933C26.3075 26.4956 26.8856 27.1552 27.4512 27.868L34.0509 36.1971C34.6083 36.8977 35.1576 37.4958 35.6987 37.9917C37.0186 39.1921 37.9779 39.9171 39.765 39.9171V40.0769H35.5922C35.2273 40.0769 34.8215 40.0073 34.3706 39.868C33.9238 39.7287 33.4483 39.5075 32.9441 39.1961C32.444 38.8889 31.9193 38.4874 31.3741 37.9917C30.833 37.4958 30.2838 36.8977 29.7263 36.1971L23.1266 27.868C22.561 27.1552 21.9829 26.4956 21.3927 25.8933C20.8024 25.2869 20.1753 24.7626 19.4988 24.3201C19.089 24.0496 18.6585 23.812 18.2077 23.6154L17.9126 23.4966V40.0769C16.6951 40.0769 15.4776 40.0769 14.2561 40.0769C14.461 36.5003 14.5348 26.9667 14.5513 23.3859C14.5594 22.2388 14.5553 21.0917 14.543 19.9486C14.5348 18.8014 14.5143 17.6789 14.4898 16.5769C14.4652 15.4748 14.4364 14.4054 14.3954 13.373C14.3586 12.3405 14.3134 11.3614 14.2561 10.4355L16.1212 10.4396L29.9394 10.4478C30.9027 10.4478 31.7758 10.5666 32.5546 10.8124C33.3335 11.0542 34.014 11.3819 34.596 11.7957C35.1822 12.2095 35.67 12.6888 36.0635 13.2419C36.4571 13.7909 36.7563 14.3768 36.9531 14.9954C37.1498 15.6182 37.2523 16.2573 37.2564 16.9087C37.2604 17.5642 37.1662 18.1993 36.9777 18.8179C36.785 19.4406 36.494 20.0223 36.1086 20.5755C35.7233 21.1285 35.2355 21.612 34.6493 22.0257C34.0631 22.4396 33.3786 22.7673 32.5956 23.0049C31.8127 23.2466 30.9273 23.3654 29.9394 23.3654H28.1153C28.7957 23.6113 29.4311 23.9267 30.0255 24.3201C30.6977 24.7626 31.3291 25.2869 31.9193 25.8933C32.5096 26.4956 33.0835 27.1552 33.6492 27.868L40.2487 36.1971C40.8062 36.8977 41.3555 37.4958 41.9007 37.9917C43.1263 39.1019 44.1757 39.9171 45.84 39.9171V40.0769ZM23.2578 40.0769C23.2005 36.7379 23.1102 33.4686 23.0365 29.6748L22.2863 28.7283C21.7247 28.0155 21.1467 27.36 20.5565 26.7536C20.2613 26.4505 19.958 26.1678 19.6423 25.9055V40.0769C20.8475 40.0769 22.0527 40.0769 23.2578 40.0769ZM37.736 13.7704H42.5361V18.4081C41.4007 16.8554 39.6544 15.9582 38.4656 15.7329C38.4205 15.487 38.355 15.2412 38.2811 14.9954C38.1459 14.5693 37.9614 14.1637 37.736 13.7704ZM33.977 26.4668C34.5141 26.4463 35.0101 26.4136 35.4568 26.3685C36.2357 26.2866 36.8997 26.1555 37.4532 25.9752C38.0024 25.7991 38.4492 25.5615 38.7895 25.2747C39.1338 24.9838 39.3962 24.6314 39.5765 24.2135V30.4C39.4043 30.0272 39.1502 29.6953 38.8058 29.4126C38.4656 29.1299 38.0189 28.8922 37.4654 28.6997C36.9162 28.5112 36.2602 28.3719 35.4897 28.2736L35.1658 27.868C34.7763 27.3764 34.3787 26.9093 33.977 26.4668Z" fill="#493611"/>
<path d="M28.0299 0C43.5124 0 56.0598 12.5407 56.0598 28.015C56.0598 32.3331 55.0843 36.4219 53.338 40.0764H52.7313C54.1373 36.8152 54.9203 33.2181 54.9203 29.4407C54.9203 14.6015 42.8811 2.56879 28.0299 2.56879C13.1829 2.56879 1.14366 14.6015 1.14366 29.4407C1.14366 33.2181 1.9266 36.8152 3.33261 40.0764H2.72593C0.979695 36.4219 0 32.3331 0 28.015C0 12.5407 12.5516 0 28.0299 0Z" fill="#493611"/>
<path d="M6.99738 48.0739C7.32941 49.5611 7.96888 50.827 8.64114 51.4375C7.70653 51.2368 6.67355 49.4914 6.27184 47.3733C6.08738 46.3818 6.07098 45.4723 6.19805 44.7718C5.90291 45.2306 5.75535 45.9927 5.80043 46.9186C3.89433 44.8169 3.40244 42.6372 4.08699 41.7728C4.71417 40.9779 6.01359 41.5352 6.9154 41.3262C9.793 40.6707 13.6052 42.4529 15.3678 43.2026C21.4551 45.7837 30.2519 51.5112 33.9164 51.3719C33.9574 51.3678 33.9944 51.4007 34.0025 51.4498C34.0066 51.4949 33.9779 51.5358 33.9369 51.5481C29.3541 52.5846 24.4639 52.1791 19.9548 51.0114C18.2332 50.5689 16.618 49.9257 14.9784 49.0326C14.7694 48.9179 14.716 49.0777 14.7284 49.1924C14.7365 49.3112 14.8104 49.3849 14.9334 49.4546C22.3159 53.5024 33.7115 54.1128 40.4423 50.0118C40.471 49.9913 40.512 49.9995 40.5366 50.0281C40.5612 50.0527 40.5693 50.0937 40.5488 50.1264C39.7987 51.499 38.4501 52.4699 37.1958 53.2442C27.9563 58.9472 16.8764 54.2726 14.794 52.7526C14.5562 52.5765 14.5849 51.6342 14.5562 51.3637C14.5398 51.331 14.5111 51.3146 14.4743 51.3187C14.4414 51.3227 14.4168 51.3473 14.4045 51.3802V51.3883C14.1176 51.9415 14.6955 53.9408 13.8798 54.3504C13.4658 54.5553 12.0434 54.7847 11.281 53.2893C10.7317 52.2201 11.6007 50.8394 11.7933 49.5447C11.9532 48.4795 11.6622 47.3446 10.912 46.4884C10.8875 46.4638 10.867 46.4393 10.8424 46.4105C10.8342 46.4023 10.8178 46.4023 10.8096 46.4105C10.8055 46.4105 10.8014 46.4147 10.8014 46.4188C10.7973 46.4228 10.7973 46.431 10.8014 46.4351C11.5023 47.7256 11.3957 49.3604 10.5062 50.5279C10.5021 50.5362 10.494 50.5362 10.4858 50.5321C9.22732 49.8192 8.03446 48.9752 6.99738 48.0739ZM52.5388 42.3381C51.883 43.8581 48.1856 47.951 46.6402 49.348C43.7872 51.9291 40.4382 53.8588 36.7982 54.8216C36.7612 54.8339 36.7243 54.8134 36.7121 54.7765C36.6997 54.7355 36.7121 54.6905 36.7448 54.6741C47.7675 48.1681 40.4463 45.9558 45.144 45.3781C48.661 40.0111 52.6044 42.1783 52.5388 42.3381Z" fill="#493611"/>
</svg>
